<svg width="35" height="37" viewBox="0 0 35 37" fill="none" xmlns="http://www.w3.org/2000/svg">
<ellipse cx="17.0833" cy="18.5856" rx="17.0833" ry="17.9167" fill="white"/>
<path d="M23.3335 18.5878C23.3304 20.1244 22.7699 21.607 21.7574 22.7572C20.7448 23.9074 19.3497 24.6462 17.8341 24.8347C17.8003 24.8381 17.7661 24.8343 17.7338 24.8238C17.7015 24.8132 17.6717 24.796 17.6463 24.7733C17.6209 24.7506 17.6004 24.7228 17.5862 24.6918C17.572 24.6607 17.5643 24.627 17.5636 24.5928V20.0392H19.0061C19.0719 20.0393 19.1369 20.0259 19.1973 19.9997C19.2577 19.9735 19.3121 19.9351 19.3572 19.887C19.4022 19.8388 19.437 19.7818 19.4593 19.7196C19.4816 19.6574 19.491 19.5912 19.4869 19.5252C19.4763 19.4001 19.4189 19.2837 19.3263 19.1995C19.2337 19.1153 19.1128 19.0696 18.9881 19.0716H17.5636V17.6202C17.5636 17.3636 17.665 17.1175 17.8453 16.9361C18.0256 16.7546 18.2702 16.6527 18.5253 16.6527H19.4869C19.5527 16.6528 19.6178 16.6394 19.6781 16.6132C19.7385 16.587 19.7929 16.5486 19.838 16.5005C19.8831 16.4523 19.9178 16.3953 19.9401 16.3331C19.9625 16.2709 19.9719 16.2047 19.9677 16.1386C19.9571 16.0136 19.8997 15.8972 19.8071 15.813C19.7145 15.7288 19.5937 15.6831 19.4689 15.6851H18.5253C18.0152 15.6851 17.526 15.889 17.1653 16.2519C16.8046 16.6148 16.602 17.107 16.602 17.6202V19.0716H15.1595C15.0938 19.0715 15.0287 19.0849 14.9683 19.1111C14.9079 19.1373 14.8535 19.1756 14.8085 19.2238C14.7634 19.272 14.7286 19.329 14.7063 19.3912C14.684 19.4534 14.6746 19.5196 14.6787 19.5856C14.6894 19.7107 14.7468 19.8271 14.8393 19.9113C14.9319 19.9955 15.0528 20.0412 15.1776 20.0392H16.602V24.5928C16.6022 24.6267 16.5953 24.6603 16.5817 24.6913C16.5681 24.7224 16.5482 24.7502 16.5233 24.773C16.4984 24.7958 16.4689 24.8131 16.4369 24.8237C16.4049 24.8344 16.3711 24.8381 16.3375 24.8347C13.1641 24.4477 10.7119 21.672 10.8382 18.352C10.909 16.7124 11.614 15.1657 12.8026 14.0419C13.9913 12.9181 15.5694 12.3063 17.2002 12.337C18.8309 12.3678 20.3851 13.0387 21.5311 14.2066C22.677 15.3745 23.3238 16.9467 23.3335 18.5878Z" fill="#0D1733"/>
</svg>
