<svg width="34" height="37" viewBox="0 0 34 37" fill="none" xmlns="http://www.w3.org/2000/svg">
<ellipse cx="16.6669" cy="18.482" rx="16.6667" ry="17.6221" fill="white"/>
<path d="M16.2501 20.5449C17.3546 20.5449 18.25 19.6213 18.25 18.4819C18.25 17.3426 17.3546 16.4189 16.2501 16.4189C15.1456 16.4189 14.2502 17.3426 14.2502 18.4819C14.2502 19.6213 15.1456 20.5449 16.2501 20.5449Z" fill="#0D1733"/>
<path d="M19 12.0347H13.5C12.5717 12.0347 11.6815 12.415 11.0251 13.0921C10.3687 13.7692 10 14.6875 10 15.6451V21.3185C10 22.2761 10.3687 23.1944 11.0251 23.8715C11.6815 24.5485 12.5717 24.9289 13.5 24.9289H19C19.9283 24.9289 20.8185 24.5485 21.4749 23.8715C22.1313 23.1944 22.5 22.2761 22.5 21.3185V15.6451C22.5 14.6875 22.1313 13.7692 21.4749 13.0921C20.8185 12.415 19.9283 12.0347 19 12.0347ZM16.25 21.5764C15.6567 21.5764 15.0766 21.3949 14.5833 21.0549C14.0899 20.7148 13.7054 20.2315 13.4784 19.6661C13.2513 19.1006 13.1919 18.4784 13.3076 17.8781C13.4234 17.2778 13.7091 16.7264 14.1287 16.2936C14.5482 15.8608 15.0828 15.566 15.6647 15.4466C16.2467 15.3272 16.8499 15.3885 17.3981 15.6227C17.9462 15.857 18.4148 16.2536 18.7444 16.7625C19.0741 17.2714 19.25 17.8697 19.25 18.4818C19.25 19.3025 18.9339 20.0897 18.3713 20.67C17.8087 21.2504 17.0456 21.5764 16.25 21.5764ZM19.5 15.9029C19.3517 15.9029 19.2067 15.8576 19.0833 15.7726C18.96 15.6875 18.8639 15.5667 18.8071 15.4254C18.7503 15.284 18.7355 15.1284 18.7644 14.9784C18.7934 14.8283 18.8648 14.6904 18.9697 14.5822C19.0746 14.474 19.2082 14.4003 19.3537 14.3705C19.4992 14.3406 19.65 14.356 19.787 14.4145C19.9241 14.4731 20.0412 14.5722 20.1236 14.6995C20.206 14.8267 20.25 14.9763 20.25 15.1293C20.25 15.3345 20.171 15.5313 20.0303 15.6763C19.8897 15.8214 19.6989 15.9029 19.5 15.9029Z" fill="#0D1733"/>
</svg>
