<svg width="35" height="36" viewBox="0 0 35 36" fill="none" xmlns="http://www.w3.org/2000/svg">
<ellipse cx="17.5836" cy="17.6221" rx="17.0833" ry="17.6221" fill="white"/>
<path d="M22.8335 11.1753H12.3335C12.0683 11.1753 11.8139 11.284 11.6264 11.4774C11.4389 11.6709 11.3335 11.9333 11.3335 12.2068V23.038C11.3335 23.3116 11.4389 23.574 11.6264 23.7674C11.8139 23.9609 12.0683 24.0695 12.3335 24.0695H22.8335C23.0987 24.0695 23.3531 23.9609 23.5406 23.7674C23.7281 23.574 23.8335 23.3116 23.8335 23.038V12.2068C23.8335 11.9333 23.7281 11.6709 23.5406 11.4774C23.3531 11.284 23.0987 11.1753 22.8335 11.1753ZM15.5835 20.717C15.5835 20.8538 15.5308 20.985 15.437 21.0817C15.3433 21.1785 15.2161 21.2328 15.0835 21.2328C14.9509 21.2328 14.8237 21.1785 14.7299 21.0817C14.6362 20.985 14.5835 20.8538 14.5835 20.717V16.5909C14.5835 16.4541 14.6362 16.3229 14.7299 16.2262C14.8237 16.1294 14.9509 16.0751 15.0835 16.0751C15.2161 16.0751 15.3433 16.1294 15.437 16.2262C15.5308 16.3229 15.5835 16.4541 15.5835 16.5909V20.717ZM15.0835 15.3015C14.9352 15.3015 14.7902 15.2561 14.6668 15.1711C14.5435 15.0861 14.4474 14.9652 14.3906 14.8239C14.3338 14.6825 14.319 14.5269 14.3479 14.3769C14.3768 14.2268 14.4483 14.0889 14.5532 13.9807C14.6581 13.8725 14.7917 13.7989 14.9372 13.769C15.0827 13.7392 15.2335 13.7545 15.3705 13.813C15.5076 13.8716 15.6247 13.9708 15.7071 14.098C15.7895 14.2252 15.8335 14.3748 15.8335 14.5278C15.8335 14.733 15.7545 14.9298 15.6138 15.0749C15.4732 15.2199 15.2824 15.3015 15.0835 15.3015V15.3015ZM21.0835 20.717C21.0835 20.8538 21.0308 20.985 20.937 21.0817C20.8433 21.1785 20.7161 21.2328 20.5835 21.2328C20.4509 21.2328 20.3237 21.1785 20.2299 21.0817C20.1362 20.985 20.0835 20.8538 20.0835 20.717V18.3961C20.0835 18.0541 19.9518 17.7261 19.7174 17.4843C19.483 17.2425 19.165 17.1066 18.8335 17.1066C18.502 17.1066 18.184 17.2425 17.9496 17.4843C17.7152 17.7261 17.5835 18.0541 17.5835 18.3961V20.717C17.5835 20.8538 17.5308 20.985 17.437 21.0817C17.3433 21.1785 17.2161 21.2328 17.0835 21.2328C16.9509 21.2328 16.8237 21.1785 16.7299 21.0817C16.6362 20.985 16.5835 20.8538 16.5835 20.717V16.5909C16.5832 16.4639 16.6282 16.3413 16.71 16.2465C16.7918 16.1517 16.9046 16.0913 17.0269 16.077C17.1492 16.0626 17.2723 16.0952 17.3726 16.1687C17.473 16.2421 17.5437 16.3511 17.571 16.4748C17.9093 16.2383 18.3037 16.1012 18.7119 16.0784C19.12 16.0556 19.5264 16.1479 19.8875 16.3455C20.2487 16.543 20.5508 16.8382 20.7615 17.1995C20.9722 17.5608 21.0835 17.9744 21.0835 18.3961V20.717Z" fill="#0D1733"/>
</svg>
