<svg width="34" height="37" viewBox="0 0 34 37" fill="none" xmlns="http://www.w3.org/2000/svg">
<ellipse cx="16.6669" cy="18.482" rx="16.6667" ry="17.6221" fill="white"/>
<path d="M22.5903 14.9691C22.2397 15.4922 21.8096 15.9381 21.2999 16.3069C21.305 16.4058 21.3075 16.5176 21.3075 16.6422C21.3075 17.3348 21.2068 18.0283 21.0055 18.7226C20.8042 19.4169 20.4966 20.0815 20.0829 20.7164C19.6691 21.3512 19.1762 21.9136 18.6043 22.4036C18.0323 22.8936 17.3448 23.2843 16.5417 23.5757C15.7386 23.8671 14.8779 24.0128 13.9596 24.0128C12.5265 24.0128 11.2067 23.6247 10.0002 22.8485C10.2144 22.8724 10.4197 22.8843 10.6163 22.8843C11.8136 22.8843 12.883 22.5144 13.8245 21.7745C13.2662 21.7643 12.7663 21.5919 12.3246 21.2574C11.883 20.9229 11.579 20.4955 11.4128 19.9752C11.5771 20.0066 11.7392 20.0223 11.8993 20.0223C12.1296 20.0223 12.3562 19.9921 12.5792 19.9319C11.9834 19.8122 11.4892 19.5145 11.0965 19.0389C10.7038 18.5633 10.5075 18.0144 10.5075 17.3921V17.3601C10.8732 17.5632 11.2632 17.6712 11.6776 17.6842C11.3247 17.4482 11.0449 17.1404 10.8382 16.7609C10.6315 16.3814 10.5281 15.9707 10.5281 15.5288C10.5281 15.0627 10.6445 14.6288 10.8774 14.2268C11.5252 15.0244 12.3103 15.6617 13.2325 16.139C14.1547 16.6163 15.144 16.8814 16.2005 16.9342C16.1554 16.7459 16.1329 16.5493 16.1328 16.3445C16.1328 15.6295 16.385 15.019 16.8895 14.5129C17.394 14.0069 18.0027 13.7539 18.7155 13.7539C19.4617 13.7539 20.0903 14.0265 20.6013 14.5716C21.185 14.4557 21.7316 14.2459 22.241 13.9423C22.0447 14.5618 21.6666 15.0398 21.1065 15.3761C21.6213 15.3148 22.1159 15.1791 22.5903 14.9691H22.5903Z" fill="#0D1733"/>
</svg>
