<svg width="35" height="37" viewBox="0 0 35 37" fill="none" xmlns="http://www.w3.org/2000/svg">
<rect width="35" height="37" fill="#1E1E1E"/>
<g clip-path="url(#clip0_193_353)">
<rect width="1440" height="7429" transform="translate(-1327 -6326)" fill="#DFFFFB"/>
<g filter="url(#filter0_f_193_353)">
<circle cx="-14.5" cy="-944.5" r="1330.5" fill="white"/>
</g>
<path d="M-1326 -285.667C-1326 -290.269 -1322.27 -294 -1317.67 -294H107.667C112.269 -294 116 -290.269 116 -285.667V322.667C116 327.269 112.269 331 107.667 331H-1317.67C-1322.27 331 -1326 327.269 -1326 322.667V-285.667Z" fill="#21976E"/>
<ellipse cx="17.0833" cy="18.4532" rx="17.0833" ry="17.6221" fill="white"/>
<path d="M23.7303 15.0734C23.6751 14.8574 23.5693 14.6576 23.4217 14.4906C23.274 14.3235 23.0888 14.1939 22.8812 14.1125C20.8727 13.3367 17.6758 13.3438 17.5 13.3438C17.3242 13.3438 14.1273 13.3367 12.1187 14.1125C11.9112 14.1939 11.726 14.3235 11.5783 14.4906C11.4307 14.6576 11.3249 14.8574 11.2697 15.0734C11.118 15.6582 10.9375 16.727 10.9375 18.5C10.9375 20.273 11.118 21.3418 11.2697 21.9266C11.3249 22.1427 11.4306 22.3426 11.5782 22.5098C11.7258 22.677 11.9111 22.8066 12.1187 22.8881C14.043 23.6305 17.0547 23.6563 17.4613 23.6563H17.5387C17.9453 23.6563 20.9588 23.6305 22.8812 22.8881C23.0889 22.8066 23.2742 22.677 23.4218 22.5098C23.5694 22.3426 23.6751 22.1427 23.7303 21.9266C23.882 21.3406 24.0625 20.273 24.0625 18.5C24.0625 16.727 23.882 15.6582 23.7303 15.0734ZM19.5051 18.6951L16.6926 20.5701C16.6573 20.5937 16.6162 20.6072 16.5738 20.6093C16.5314 20.6113 16.4893 20.6018 16.4519 20.5818C16.4145 20.5617 16.3832 20.5319 16.3614 20.4955C16.3396 20.4591 16.3281 20.4174 16.3281 20.375V16.625C16.3281 16.5826 16.3396 16.5409 16.3614 16.5045C16.3832 16.4681 16.4145 16.4383 16.4519 16.4182C16.4893 16.3982 16.5314 16.3887 16.5738 16.3907C16.6162 16.3928 16.6573 16.4063 16.6926 16.4299L19.5051 18.3049C19.5372 18.3263 19.5636 18.3553 19.5818 18.3893C19.6001 18.4234 19.6096 18.4614 19.6096 18.5C19.6096 18.5386 19.6001 18.5766 19.5818 18.6107C19.5636 18.6447 19.5372 18.6737 19.5051 18.6951Z" fill="#0D1733"/>
</g>
<defs>
<filter id="filter0_f_193_353" x="-1898.33" y="-2828.33" width="3767.67" height="3767.67" filterUnits="userSpaceOnUse" color-interpolation-filters="sRGB">
<feFlood flood-opacity="0" result="BackgroundImageFix"/>
<feBlend mode="normal" in="SourceGraphic" in2="BackgroundImageFix" result="shape"/>
<feGaussianBlur stdDeviation="276.667" result="effect1_foregroundBlur_193_353"/>
</filter>
<clipPath id="clip0_193_353">
<rect width="1440" height="7429" fill="white" transform="translate(-1327 -6326)"/>
</clipPath>
</defs>
</svg>
